<svg width="133" height="210" viewBox="0 0 133 210" fill="none" xmlns="http://www.w3.org/2000/svg">
<g filter="url(#filter0_d_15_776)">
<path d="M19.8749 188.514V12.8984C19.8788 9.06338 22.9852 5.957 26.8202 5.95312H16.8984C13.0634 5.957 9.957 9.06338 9.95312 12.8984V188.514C9.957 192.349 13.0634 195.456 16.8984 195.46H26.8202C22.9852 195.456 19.8788 192.349 19.8749 188.514Z" fill="#9FD1FF"/>
<path d="M56.2484 127.315C57.0816 126.474 58.2192 126.003 59.4032 126.007H116.116C117.76 126.007 119.093 124.674 119.093 123.03V12.8983C119.085 5.77868 113.314 0.00775141 106.195 0H16.8983C9.77868 0.00775141 4.00775 5.77868 4 12.8983V188.514C4.00775 195.634 9.77868 201.405 16.8983 201.413H106.195C113.314 201.405 119.085 195.634 119.093 188.514V137.913C119.093 136.27 117.76 134.937 116.116 134.937H59.4032C57.5991 134.937 55.9713 133.849 55.2814 132.181C54.5896 130.514 54.9694 128.596 56.2445 127.319L56.2484 127.315ZM59.4032 140.89H113.14V188.514C113.136 192.349 110.03 195.456 106.195 195.46H16.8983C13.0633 195.456 9.95696 192.349 9.95308 188.514V12.8983C9.95696 9.06333 13.0633 5.95696 16.8983 5.95308H106.195C110.03 5.95696 113.136 9.06333 113.14 12.8983V120.054H59.4032C53.6497 120.054 48.9853 124.718 48.9853 130.472C48.9853 136.225 53.6497 140.89 59.4032 140.89Z" fill="#133D73"/>
<path d="M26.82 36.6641H95.4743C97.1176 36.6641 98.4508 35.3328 98.4508 33.6876C98.4508 32.0443 97.1176 30.7111 95.4743 30.7111H26.82C25.1767 30.7111 23.8435 32.0443 23.8435 33.6876C23.8435 35.3328 25.1767 36.6641 26.82 36.6641Z" fill="#133D73"/>
<path d="M26.82 56.5078H95.4743C97.1176 56.5078 98.4508 55.1765 98.4508 53.5312C98.4508 51.8879 97.1176 50.5547 95.4743 50.5547H26.82C25.1767 50.5547 23.8435 51.8879 23.8435 53.5312C23.8435 55.1765 25.1767 56.5078 26.82 56.5078Z" fill="#133D73"/>
<path d="M98.4508 73.3749C98.4508 71.7316 97.1176 70.3983 95.4743 70.3983H26.82C25.1767 70.3983 23.8435 71.7316 23.8435 73.3749C23.8435 75.0201 25.1767 76.3514 26.82 76.3514H95.4743C97.1176 76.3514 98.4508 75.0201 98.4508 73.3749Z" fill="#133D73"/>
<path d="M118.582 140.89C124.336 140.89 129 136.225 129 130.472C129 124.718 124.336 120.054 118.582 120.054H97.7803C92.5888 101.995 74.8923 90.5152 56.2851 93.1372C37.6798 95.7591 23.8435 111.682 23.8435 130.472C23.8435 149.261 37.6798 165.185 56.2851 167.806C74.8923 170.428 92.5888 158.949 97.7803 140.89L118.582 140.89ZM123.047 130.472C123.045 132.937 121.047 134.935 118.582 134.937H59.4031C57.597 134.937 55.9692 133.848 55.2793 132.179C54.5895 130.511 54.9712 128.59 56.2483 127.315C56.8684 126.691 57.661 126.265 58.5233 126.092C58.814 126.036 59.1085 126.007 59.4031 126.007H118.582C121.047 126.009 123.045 128.007 123.047 130.472ZM59.4031 140.89H80.7408C75.9756 149.664 65.8639 154.086 56.1843 151.627C46.5067 149.17 39.732 140.458 39.732 130.472C39.732 120.486 46.5067 111.773 56.1843 109.316C65.8639 106.857 75.9756 111.279 80.7408 120.054H59.4031C53.6496 120.054 48.9852 124.718 48.9852 130.472C48.9852 136.225 53.6496 140.89 59.4031 140.89ZM61.5464 162.222C45.3789 162.218 31.7965 150.065 30.0001 133.997C28.2056 117.93 38.7708 103.078 54.5391 99.5069C70.3074 95.9335 86.2404 104.782 91.5462 120.054H87.3043C82.3182 107.727 69.2958 100.662 56.2444 103.202C43.191 105.743 33.7692 117.174 33.7692 130.472C33.7692 143.769 43.191 155.201 56.2444 157.741C69.2958 160.282 82.3182 153.216 87.3043 140.89H91.5462C87.0562 153.623 75.0474 162.162 61.5464 162.222Z" fill="#37D12C"/>
</g>
<defs>
<filter id="filter0_d_15_776" x="0" y="0" width="133" height="209.413" filterUnits="userSpaceOnUse" color-interpolation-filters="sRGB">
<feFlood flood-opacity="0" result="BackgroundImageFix"/>
<feColorMatrix in="SourceAlpha" type="matrix" values="0 0 0 0 0 0 0 0 0 0 0 0 0 0 0 0 0 0 127 0" result="hardAlpha"/>
<feOffset dy="4"/>
<feGaussianBlur stdDeviation="2"/>
<feComposite in2="hardAlpha" operator="out"/>
<feColorMatrix type="matrix" values="0 0 0 0 0 0 0 0 0 0 0 0 0 0 0 0 0 0 0.25 0"/>
<feBlend mode="normal" in2="BackgroundImageFix" result="effect1_dropShadow_15_776"/>
<feBlend mode="normal" in="SourceGraphic" in2="effect1_dropShadow_15_776" result="shape"/>
</filter>
</defs>
</svg>
