<svg width="220" height="95" viewBox="0 0 220 95" fill="none" xmlns="http://www.w3.org/2000/svg">
<path d="M100.169 37.7709C100.229 37.4307 100.245 37.0844 100.219 36.74C100.219 36.52 100.32 36.4194 100.54 36.4257H108.02C108.649 36.4257 108.649 36.4257 108.649 37.0543V68.7972C108.649 69.0172 108.561 69.124 108.341 69.1177C108.253 69.1177 108.165 69.1177 108.077 69.1177H100.829C100.232 69.1177 100.201 69.1177 100.201 68.4892C100.201 68.0617 100.201 67.6343 100.201 67.1063C99.6537 67.4017 99.2074 67.6532 98.7549 67.892C97.0705 68.8282 95.215 69.4161 93.2989 69.6206C90.0902 69.9324 86.8588 69.331 83.9771 67.8857C81.0792 66.4425 78.7279 64.0979 77.2766 61.204C76.1096 58.8763 75.4538 56.3259 75.3531 53.724C75.178 51.2194 75.5006 48.705 76.3023 46.3257C76.9638 44.314 78.0155 42.4524 79.3971 40.8475C80.7788 39.2426 82.4633 37.9259 84.3543 36.9726C86.4257 35.9252 88.6929 35.3215 91.0109 35.2C94.1751 35.0524 97.3041 35.9178 99.9429 37.6703C100.016 37.7084 100.092 37.742 100.169 37.7709ZM83.8263 52.4543C83.7843 53.918 84.0722 55.3724 84.6686 56.7097C86.1771 60.2549 89.8606 61.7006 93.2171 61.1726C94.8917 60.8874 96.4239 60.0538 97.5731 58.8029C98.4301 57.9764 99.1105 56.9847 99.5731 55.8877C100.036 54.7907 100.271 53.6112 100.264 52.4206C100.258 51.2301 100.01 50.0532 99.5355 48.9613C99.061 47.8694 98.3699 46.8851 97.504 46.068C96.611 45.0964 95.4786 44.3761 94.2201 43.979C92.9616 43.5819 91.6209 43.522 90.332 43.8052C88.413 44.1157 86.6916 45.1647 85.536 46.728C84.3482 48.3956 83.7429 50.4081 83.8137 52.4543H83.8263Z" fill="#247DE1"/>
<path d="M175.246 69.0486C175.074 69.1048 174.891 69.122 174.711 69.0989C171.914 69.0989 169.111 69.0989 166.314 69.0989C166.124 69.1156 165.933 69.0709 165.77 68.9714C165.607 68.8718 165.48 68.7226 165.409 68.5457C163.397 64.9126 161.377 61.2899 159.349 57.6777C159.299 57.5835 159.28 57.464 159.098 57.4263C158.897 57.508 158.79 57.7343 158.651 57.9229C157.005 60.0977 155.37 62.2852 153.723 64.46C153.491 64.75 153.371 65.1135 153.384 65.4846C153.384 66.5343 153.384 67.584 153.384 68.6275C153.384 68.9543 153.296 69.0863 152.938 69.0863C150.423 69.0863 147.909 69.0863 145.395 69.0863C145.062 69.0863 144.892 68.9983 144.936 68.6463C144.942 68.5375 144.942 68.4283 144.936 68.3195V25.0423C144.936 24.1246 144.829 24.2252 145.722 24.2252H152.636C152.787 24.2252 152.938 24.2252 153.095 24.2252C153.252 24.2252 153.403 24.332 153.397 24.5457C153.39 24.7595 153.397 24.8915 153.397 25.0675V51.9703C153.667 51.7779 153.898 51.5345 154.075 51.2537C157.042 47.5075 160.003 43.7549 162.957 39.996L165.471 36.8029C165.54 36.698 165.633 36.6116 165.742 36.5513C165.852 36.491 165.975 36.4586 166.1 36.4572C169.092 36.4572 172.088 36.4572 175.089 36.4572C175.13 36.4522 175.173 36.4522 175.214 36.4572C175.283 36.6709 175.114 36.7715 175.007 36.9035L166.571 47.5515C165.999 48.268 165.453 49.0035 164.855 49.7012C164.74 49.8082 164.668 49.9548 164.655 50.112C164.642 50.2692 164.689 50.4254 164.786 50.5497C167.426 55.1593 170.056 59.7688 172.675 64.3783L175.107 68.6463C175.156 68.7009 175.193 68.7646 175.217 68.8336C175.241 68.9027 175.25 68.9757 175.246 69.0486Z" fill="#247DE1"/>
<path d="M50.4303 37.7645C51.3253 37.1358 52.308 36.6423 53.3469 36.2999C54.8969 35.8401 56.5237 35.6968 58.1303 35.8788C59.5035 35.9932 60.8503 36.322 62.1217 36.8531C64.3888 37.7677 66.3859 39.244 67.9253 41.143C69.4647 43.042 70.4959 45.3013 70.9217 47.7085C71.1049 48.6294 71.1913 49.5668 71.1794 50.5057V68.2817C71.1794 68.4137 71.1794 68.5457 71.1794 68.6777C71.1794 68.9731 71.104 69.1302 70.7772 69.1051C70.5364 69.0925 70.2951 69.0925 70.0543 69.1051H63.3223C62.7817 69.1051 62.7692 69.1051 62.7692 68.5708V50.7194C63.0834 48.2805 61.3612 45.3639 58.3692 44.4777C57.5227 44.2395 56.6357 44.1816 55.7655 44.3077C54.8952 44.4338 54.0611 44.741 53.3171 45.2096C52.573 45.6782 51.9355 46.2977 51.4459 47.0281C50.9562 47.7584 50.6252 48.5834 50.4743 49.4497C50.4352 49.7265 50.4204 50.0062 50.4303 50.2857V68.1937C50.4303 68.3445 50.4303 68.5017 50.4303 68.6525C50.4743 69.0108 50.292 69.0925 49.9714 69.0925C47.4572 69.0925 44.9617 69.0925 42.4852 69.0925C42.1583 69.0925 41.9886 69.0045 42.0263 68.6525C42.0326 68.5437 42.0326 68.4345 42.0263 68.3257C42.0263 53.8937 42.0263 39.4596 42.0263 25.0234C42.0263 24.1119 41.9132 24.2125 42.812 24.2125H50.1034C50.3172 24.2125 50.4366 24.2879 50.4303 24.5142C50.424 24.7405 50.4303 24.8662 50.4303 25.0422V37.7645Z" fill="#247DE1"/>
<path d="M113.143 69.0612L126.814 44.9114C126.618 44.8213 126.399 44.7908 126.186 44.8234H113.973C113.093 44.8234 113.181 44.924 113.181 44.0063V37.2492C113.181 37.092 113.181 36.9412 113.181 36.7903C113.181 36.6394 113.25 36.4572 113.482 36.4697H140.442C139.574 38.192 138.613 39.7634 137.714 41.3663C136.815 42.9692 135.91 44.5594 135.005 46.156C134.099 47.7526 133.169 49.3806 132.258 50.996L129.567 55.792C128.656 57.4012 127.732 59.0103 126.789 60.6697C127.035 60.7476 127.294 60.7733 127.55 60.7452C131.51 60.7452 135.47 60.7452 139.43 60.7452H139.819C140.385 60.7452 140.391 60.7452 140.391 61.3234C140.391 63.7288 140.391 66.1341 140.391 68.5394C140.391 69.0926 140.391 69.1052 139.87 69.1052H113.47C113.36 69.0962 113.251 69.0815 113.143 69.0612Z" fill="#247DE1"/>
<path d="M31.7806 56.8102C32.1389 57.1811 32.4657 57.5331 32.8052 57.8725L37.488 62.5554C37.8966 62.964 37.9029 62.9702 37.5697 63.3977C35.0129 66.8364 31.2021 69.127 26.9657 69.7714C24.5109 70.2158 21.9868 70.0892 19.5888 69.4014C17.1908 68.7136 14.9832 67.483 13.1372 65.8051C10.1943 63.291 8.28284 59.7791 7.76916 55.9428C7.36655 53.3674 7.52667 50.7353 8.23848 48.2277C8.9503 45.72 10.1969 43.3963 11.8926 41.4165C14.3742 38.3269 17.9295 36.2866 21.8492 35.7028C24.801 35.235 27.8251 35.6255 30.5612 36.828C33.5014 38.0781 35.995 40.1881 37.7143 42.8811C37.7617 42.93 37.7978 42.9888 37.82 43.0532C37.8422 43.1176 37.85 43.1861 37.8428 43.2539C37.8356 43.3216 37.8136 43.387 37.7784 43.4453C37.7431 43.5036 37.6955 43.5535 37.6389 43.5914C35.8537 45.4771 34.0246 47.2685 32.2017 49.0914C32.1011 49.2246 31.9633 49.3252 31.8057 49.3805C31.6423 49.0474 31.4852 48.7142 31.3092 48.3937C30.7664 47.2653 29.9577 46.2856 28.9525 45.5388C27.9474 44.7921 26.7759 44.3007 25.5389 44.1068C24.4611 43.9043 23.3517 43.9459 22.2922 44.2288C21.2326 44.5116 20.25 45.0284 19.4166 45.7411C17.6018 47.2892 16.4481 49.4729 16.192 51.8445C15.9173 53.4228 16.0961 55.0466 16.7074 56.5274C18.0212 59.5697 20.3532 61.3485 23.6217 61.556C27.1354 61.8011 29.8383 60.2988 31.5417 57.156L31.6737 56.9297L31.7806 56.8102Z" fill="#247DE1"/>
<path d="M204.399 69.2874C204.251 69.2273 204.122 69.1272 204.028 68.9983C202.264 67.2383 200.502 65.4762 198.742 63.712C198.295 63.2657 198.308 63.3474 198.71 62.9137C201.376 60.1425 203.106 56.6055 203.657 52.8C204.093 50.1213 203.939 47.3798 203.206 44.7667C202.474 42.1536 201.179 39.7318 199.414 37.6703C199.172 37.3462 198.91 37.0375 198.629 36.7463C198.383 36.5137 198.44 36.3754 198.629 36.168C200.011 34.7977 201.382 33.4212 202.758 32.0446C203.192 31.6109 203.632 31.1897 204.053 30.7434C204.267 30.5172 204.411 30.5172 204.638 30.7434C205.741 31.8606 206.743 33.0744 207.63 34.3703C209.686 37.386 211.114 40.785 211.829 44.3646C212.089 45.6223 212.255 46.8976 212.325 48.18C212.363 48.8966 212.413 49.6194 212.394 50.336C212.33 53.9975 211.549 57.6108 210.094 60.9714C208.973 63.5112 207.472 65.8659 205.643 67.9549C205.317 68.332 204.977 68.6966 204.631 69.0674C204.559 69.1459 204.481 69.2194 204.399 69.2874Z" fill="#3AD52D"/>
<path d="M186.994 61.468V68.8097C186.994 68.9983 186.912 69.0988 186.717 69.0988C186.522 69.0988 186.459 69.0988 186.327 69.0988H179.243C179.13 69.0988 179.023 69.0988 178.917 69.0988C178.697 69.0988 178.59 69.0108 178.596 68.7908C178.602 68.5708 178.596 68.5268 178.596 68.3948V54.428C178.596 53.7554 178.565 53.7994 179.225 53.7994H186.371C186.478 53.7994 186.591 53.7994 186.698 53.7994C186.805 53.7994 186.981 53.8811 186.981 54.076V61.468H186.994Z" fill="#247DE1"/>
<path d="M188.571 36.3377C188.564 37.4907 188.212 38.615 187.559 39.5655C186.906 40.5159 185.984 41.2488 184.91 41.6694C183.837 42.09 182.662 42.179 181.537 41.9248C180.412 41.6707 179.39 41.0851 178.601 40.2438C177.813 39.4024 177.295 38.344 177.115 37.2052C176.934 36.0665 177.099 34.8997 177.589 33.8558C178.078 32.8119 178.869 31.9387 179.86 31.3491C180.851 30.7596 181.996 30.4807 183.147 30.5486C184.623 30.6279 186.012 31.2745 187.022 32.3532C188.033 33.4319 188.588 34.8595 188.571 36.3377Z" fill="#3AD52D"/>
</svg>
